# Blender 3.3.1
# www.blender.org
mtllib doggo_tail.mtl
o doggo1_tail
v 0.240013 -0.258052 0.121165
v 0.239929 -0.258126 0.122126
v 0.240207 -0.258209 0.122099
v 0.240279 -0.258963 0.121857
v 0.240029 -0.258888 0.120980
v 0.240291 -0.258768 0.121038
v 0.240360 -0.258438 0.121123
v 0.240336 -0.258602 0.121990
v 0.240367 -0.258610 0.120111
v 0.240591 -0.258190 0.117476
v 0.240522 -0.258315 0.118284
v 0.240269 -0.258463 0.118220
v 0.240339 -0.258334 0.117416
v 0.240680 -0.258019 0.116399
v 0.240712 -0.257826 0.116442
v 0.240749 -0.257783 0.115352
v 0.240569 -0.257667 0.114769
v 0.240724 -0.257624 0.114847
v 0.240706 -0.257548 0.114790
v 0.240575 -0.257544 0.114701
v 0.240715 -0.257497 0.114868
v 0.240748 -0.257554 0.114882
v 0.240716 -0.257498 0.115392
v 0.240423 -0.257603 0.116450
v 0.240619 -0.257677 0.116458
v 0.240787 -0.257637 0.115378
v 0.240608 -0.257973 0.117528
v 0.240515 -0.257812 0.117546
v 0.240452 -0.257883 0.118375
v 0.240546 -0.258071 0.118348
v 0.240184 -0.257870 0.119196
v 0.240388 -0.257956 0.119204
v 0.240094 -0.257971 0.120236
v 0.240453 -0.258438 0.119093
v 0.240319 -0.258065 0.120242
v 0.240258 -0.258157 0.121169
v 0.240418 -0.258312 0.120200
v 0.240484 -0.258169 0.119169
v 0.239661 -0.258209 0.122051
v 0.239552 -0.258602 0.121922
v 0.239631 -0.258963 0.121800
v 0.239677 -0.258438 0.121064
v 0.239760 -0.258768 0.120992
v 0.240110 -0.258747 0.120044
v 0.239845 -0.258610 0.120066
v 0.239937 -0.258438 0.119048
v 0.240199 -0.258591 0.119025
v 0.240009 -0.258315 0.118240
v 0.240522 -0.257889 0.115312
v 0.240432 -0.258142 0.116348
v 0.240178 -0.258019 0.116355
v 0.240290 -0.257783 0.115312
v 0.240140 -0.257826 0.116392
v 0.240080 -0.258190 0.117431
v 0.240249 -0.257637 0.115331
v 0.240373 -0.257554 0.114849
v 0.240228 -0.257677 0.116424
v 0.240316 -0.257498 0.115357
v 0.240515 -0.257405 0.115386
v 0.240564 -0.257446 0.114824
v 0.240408 -0.257497 0.114841
v 0.240430 -0.257548 0.114766
v 0.240402 -0.257624 0.114819
v 0.240143 -0.257812 0.117514
v 0.240328 -0.257743 0.117537
v 0.240256 -0.257806 0.118366
v 0.240054 -0.257973 0.117480
v 0.239974 -0.258071 0.118298
v 0.239893 -0.258169 0.119118
v 0.239780 -0.258312 0.120144
v 0.240062 -0.257883 0.118341
v 0.239981 -0.257956 0.119168
v 0.239871 -0.258065 0.120203
v 0.239771 -0.258157 0.121127
v 0.240110 -0.258747 0.120044
v 0.240199 -0.258591 0.119025
v 0.240432 -0.258142 0.116348
v 0.240522 -0.257889 0.115312
v 0.240564 -0.257446 0.114824
v 0.240515 -0.257405 0.115386
v 0.240328 -0.257743 0.117537
v 0.240256 -0.257806 0.118366
v 0.239929 -0.258126 0.122126
v 0.240013 -0.258052 0.121165
v 0.240029 -0.258888 0.120980
v 0.240269 -0.258463 0.118220
v 0.240339 -0.258334 0.117416
v 0.240569 -0.257667 0.114769
v 0.240423 -0.257603 0.116450
v 0.240575 -0.257544 0.114701
v 0.240184 -0.257870 0.119196
v 0.240094 -0.257971 0.120236
vn 0.2956 0.9502 0.0982
vn 0.4450 -0.8725 -0.2017
vn 0.9881 -0.1539 -0.0008
vn 0.9798 -0.1973 -0.0327
vn 0.9536 0.2897 0.0825
vn 0.4353 -0.8928 -0.1158
vn 0.5193 -0.8501 -0.0869
vn 0.5107 -0.8548 -0.0923
vn 0.5108 -0.8546 -0.0931
vn 0.9857 -0.1665 0.0275
vn 0.9836 -0.1721 0.0542
vn 0.3876 -0.8738 -0.2938
vn 0.4970 -0.4394 -0.7483
vn 0.4975 -0.4401 -0.7476
vn 0.3849 0.7538 -0.5325
vn 0.9042 -0.0958 -0.4163
vn 0.9582 -0.2559 -0.1281
vn 0.8446 0.4015 -0.3542
vn 0.8671 0.4982 -0.0021
vn 0.3385 0.9225 0.1857
vn 0.8885 0.4324 0.1535
vn 0.8931 0.4499 0.0049
vn 0.9672 -0.2269 -0.1140
vn 0.9676 -0.2513 0.0234
vn 0.8488 0.5070 0.1501
vn 0.8489 0.5071 0.1493
vn 0.9918 -0.0992 0.0808
vn 0.9929 -0.0966 0.0701
vn 0.8633 0.4840 0.1430
vn 0.8946 0.4342 0.1059
vn 0.8646 0.4869 0.1240
vn 0.3811 0.9180 0.1097
vn 0.3802 0.9168 0.1217
vn 0.9915 -0.1142 0.0620
vn 0.9910 -0.1155 0.0672
vn 0.3797 0.9171 0.1216
vn 0.3803 0.9179 0.1135
vn 0.3879 0.9144 0.1161
vn 0.3901 0.9179 0.0732
vn 0.9406 0.3320 0.0705
vn 0.9400 0.3279 0.0942
vn 0.9292 0.3541 0.1058
vn 0.9765 -0.2132 0.0316
vn 0.9295 0.3553 0.0994
vn 0.9822 -0.1808 0.0501
vn 0.9125 0.3931 0.1135
vn 0.9833 -0.1777 0.0389
vn 0.9128 0.3948 0.1044
vn 0.8940 0.4321 0.1186
vn 0.9892 -0.1336 0.0602
vn 0.9894 -0.1331 0.0583
vn -0.9731 -0.1539 -0.1713
vn -0.9535 0.2897 -0.0833
vn -0.9594 -0.1973 -0.2014
vn -0.4621 -0.8666 -0.1883
vn -0.5084 -0.8436 -0.1732
vn -0.5083 -0.8434 -0.1740
vn -0.4265 -0.8695 -0.2490
vn -0.4050 -0.8813 -0.2434
vn -0.9756 -0.1665 -0.1431
vn -0.9782 -0.1721 -0.1163
vn -0.9572 -0.2512 -0.1439
vn -0.9331 -0.2267 -0.2792
vn -0.8619 0.5070 0.0013
vn -0.8805 0.4499 -0.1493
vn -0.9017 0.4324 -0.0022
vn -0.4058 0.9085 -0.1003
vn -0.3178 0.9465 -0.0557
vn -0.8537 0.4982 -0.1517
vn -0.7708 0.4015 -0.4947
vn -0.9217 -0.2559 -0.2916
vn -0.8188 -0.0958 -0.5661
vn -0.3551 0.9307 0.0877
vn -0.3510 0.9355 0.0405
vn -0.8750 0.4840 -0.0082
vn -0.8619 0.5071 0.0005
vn -0.9908 -0.0992 -0.0916
vn -0.9900 -0.0967 -0.1024
vn -0.9873 -0.1142 -0.1101
vn -0.8730 0.4869 -0.0270
vn -0.9878 -0.1155 -0.1049
vn -0.9846 -0.1331 -0.1134
vn -0.9847 -0.1336 -0.1114
vn -0.9753 -0.1776 -0.1314
vn -0.9762 -0.1808 -0.1202
vn -0.9673 -0.2132 -0.1374
vn -0.8994 0.4342 -0.0501
vn -0.9010 0.4321 -0.0375
vn -0.3744 0.9263 0.0437
vn -0.9172 0.3948 -0.0547
vn -0.9183 0.3931 -0.0457
vn -0.9327 0.3553 -0.0625
vn -0.9335 0.3541 -0.0562
vn -0.9421 0.3280 -0.0694
vn -0.9387 0.3320 -0.0929
vn 0.4851 -0.8699 -0.0890
vn 0.4877 -0.8666 -0.1057
vn 0.5306 -0.8436 -0.0828
vn 0.5307 -0.8434 -0.0836
vn 0.5199 -0.8494 -0.0906
vn 0.4581 -0.8809 -0.1190
vn 0.4631 -0.8695 -0.1717
vn 0.4410 -0.8813 -0.1698
vn 0.4463 -0.8411 -0.3055
vn 0.4075 0.7324 -0.5454
vn 0.3227 0.9465 -0.0000
vn 0.4170 0.9085 -0.0288
vn 0.4032 0.8928 0.2007
vn 0.3420 0.9277 0.1495
vn 0.3346 0.9307 0.1477
vn 0.3387 0.9355 0.1005
vn 0.3612 0.9263 0.1077
vn 0.3615 0.9266 0.1032
vn -0.3082 0.9502 0.0457
vn -0.4035 -0.8725 -0.2755
vn -0.4088 -0.8928 -0.1892
vn -0.4625 -0.8699 -0.1714
vn -0.4964 -0.8494 -0.1790
vn -0.4966 -0.8501 -0.1752
vn -0.4871 -0.8548 -0.1791
vn -0.4871 -0.8546 -0.1799
vn -0.4307 -0.8809 -0.1962
vn -0.3869 -0.8411 -0.3779
vn -0.3655 0.9225 0.1245
vn -0.4318 0.8928 0.1281
vn -0.3627 0.9277 0.0882
vn -0.3072 0.7324 -0.6076
vn -0.2872 0.7538 -0.5910
vn -0.3610 -0.4401 -0.8222
vn -0.3604 -0.4394 -0.8228
vn -0.3310 -0.8738 -0.3563
vn -0.3739 0.9266 0.0392
vn -0.3943 0.9180 0.0423
vn -0.3955 0.9168 0.0543
vn -0.3950 0.9171 0.0542
vn -0.3942 0.9179 0.0462
vn -0.3969 0.9179 0.0048
vn -0.4021 0.9144 0.0474
vt 0.498535 0.974609
vt 0.549316 0.977051
vt 0.548340 0.961426
vt 0.537598 0.916992
vt 0.490234 0.910156
vt 0.493652 0.925781
vt 0.497070 0.944336
vt 0.543945 0.937988
vt 0.444336 0.930664
vt 0.305176 0.934082
vt 0.347656 0.934570
vt 0.346191 0.918945
vt 0.303711 0.918457
vt 0.248535 0.939453
vt 0.250000 0.950195
vt 0.192871 0.944824
vt 0.160156 0.946289
vt 0.166992 0.951660
vt 0.164063 0.954590
vt 0.156250 0.955078
vt 0.167481 0.957520
vt 0.168457 0.954590
vt 0.193848 0.960449
vt 0.250488 0.971191
vt 0.250000 0.959961
vt 0.193848 0.952637
vt 0.306641 0.945801
vt 0.307129 0.955566
vt 0.350586 0.959473
vt 0.349609 0.948242
vt 0.394043 0.972656
vt 0.394043 0.960937
vt 0.449219 0.974609
vt 0.390137 0.933105
vt 0.449219 0.961426
vt 0.498535 0.960449
vt 0.447754 0.947266
vt 0.393066 0.948242
vt 0.548340 -0.038574
vt 0.543945 -0.062012
vt 0.537598 -0.083008
vt 0.497070 -0.055664
vt 0.493652 -0.074219
vt 0.441895 -0.084961
vt 0.444336 -0.069336
vt 0.390137 -0.066895
vt 0.388184 -0.082520
vt 0.347656 -0.065430
vt 0.189941 -0.068359
vt 0.246582 -0.075684
vt 0.248535 -0.060547
vt 0.192871 -0.055176
vt 0.250000 -0.049805
vt 0.305176 -0.065918
vt 0.193848 -0.047363
vt 0.168457 -0.045410
vt 0.250000 -0.040039
vt 0.193848 -0.039063
vt 0.192871 -0.027832
vt 0.162598 -0.036133
vt 0.167481 -0.042480
vt 0.164063 -0.045410
vt 0.166992 -0.048340
vt 0.307129 -0.044434
vt 0.307129 -0.033691
vt 0.350098 -0.029297
vt 0.306641 -0.054199
vt 0.349609 -0.051758
vt 0.393066 -0.051758
vt 0.447754 -0.052734
vt 0.350586 -0.040039
vt 0.394043 -0.039063
vt 0.449219 -0.038574
vt 0.498535 -0.039551
vt 0.441895 0.915039
vt 0.388184 0.916992
vt 0.246582 0.924316
vt 0.189941 0.931641
vt 0.162598 0.963867
vt 0.192871 0.972168
vt 0.307129 0.966309
vt 0.350098 0.970703
vt 0.549316 -0.022949
vt 0.498535 -0.025391
vt 0.490234 -0.089844
vt 0.346191 -0.081055
vt 0.303711 -0.081543
vt 0.160156 -0.053711
vt 0.250488 -0.028809
vt 0.156250 -0.044434
vt 0.394043 -0.027344
vt 0.449219 -0.025391
s 0
usemtl mat_0-Dog_D.jpg
f 1/1/1 2/2/1 3/3/1
f 5/5/2 6/6/2 4/4/2
f 7/7/3 8/8/3 4/4/3
f 4/4/4 6/6/4 7/7/4
f 3/3/5 8/8/5 7/7/5
f 9/9/6 6/6/6 5/5/6
f 10/10/7 11/11/7 12/12/7
f 12/12/8 13/13/8 10/10/8
f 14/14/9 10/10/9 13/13/9
f 15/15/10 14/14/10 16/16/10
f 10/10/11 14/14/11 15/15/11
f 17/17/12 18/18/12 16/16/12
f 19/19/13 18/18/13 17/17/13
f 17/17/14 20/20/14 19/19/14
f 21/21/15 19/19/15 20/20/15
f 19/19/16 22/22/16 18/18/16
f 16/16/17 18/18/17 22/22/17
f 22/22/18 19/19/18 21/21/18
f 22/22/19 21/21/19 23/23/19
f 24/24/20 25/25/20 23/23/20
f 26/26/21 23/23/21 25/25/21
f 23/23/22 26/26/22 22/22/22
f 22/22/23 26/26/23 16/16/23
f 16/16/24 26/26/24 15/15/24
f 25/25/25 15/15/25 26/26/25
f 27/27/26 15/15/26 25/25/26
f 15/15/27 27/27/27 10/10/27
f 11/11/28 10/10/28 27/27/28
f 25/25/29 28/28/29 27/27/29
f 28/28/30 29/29/30 30/30/30
f 30/30/31 27/27/31 28/28/31
f 31/31/32 32/32/32 29/29/32
f 32/32/33 31/31/33 33/33/33
f 27/27/34 30/30/34 11/11/34
f 34/34/35 11/11/35 30/30/35
f 33/33/36 35/35/36 32/32/36
f 35/35/37 33/33/37 1/1/37
f 1/1/38 36/36/38 35/35/38
f 3/3/39 36/36/39 1/1/39
f 7/7/40 36/36/40 3/3/40
f 35/35/41 36/36/41 7/7/41
f 7/7/42 37/37/42 35/35/42
f 37/37/43 7/7/43 6/6/43
f 32/32/44 35/35/44 37/37/44
f 6/6/45 9/9/45 37/37/45
f 37/37/46 38/38/46 32/32/46
f 38/38/47 37/37/47 9/9/47
f 29/29/48 32/32/48 38/38/48
f 38/38/49 30/30/49 29/29/49
f 9/9/50 34/34/50 38/38/50
f 30/30/51 38/38/51 34/34/51
f 41/41/52 40/40/52 42/42/52
f 42/42/53 40/40/53 39/39/53
f 42/42/54 43/43/54 41/41/54
f 44/44/55 45/45/55 46/46/55
f 46/46/56 47/47/56 44/44/56
f 47/47/57 46/46/57 48/48/57
f 49/49/58 50/50/58 51/51/58
f 51/51/59 52/52/59 49/49/59
f 52/52/60 51/51/60 53/53/60
f 53/53/61 51/51/61 54/54/61
f 53/53/62 55/55/62 52/52/62
f 52/52/63 55/55/63 56/56/63
f 55/55/64 53/53/64 57/57/64
f 56/56/65 55/55/65 58/58/65
f 57/57/66 58/58/66 55/55/66
f 58/58/67 59/59/67 60/60/67
f 60/60/68 61/61/68 58/58/68
f 58/58/69 61/61/69 56/56/69
f 56/56/70 61/61/70 62/62/70
f 56/56/71 63/63/71 52/52/71
f 62/62/72 63/63/72 56/56/72
f 57/57/73 64/64/73 65/65/73
f 66/66/74 65/65/74 64/64/74
f 67/67/75 64/64/75 57/57/75
f 57/57/76 53/53/76 67/67/76
f 54/54/77 67/67/77 53/53/77
f 67/67/78 54/54/78 48/48/78
f 48/48/79 68/68/79 67/67/79
f 64/64/80 67/67/80 68/68/80
f 68/68/81 48/48/81 46/46/81
f 46/46/82 69/69/82 68/68/82
f 69/69/83 46/46/83 45/45/83
f 45/45/84 70/70/84 69/69/84
f 70/70/85 45/45/85 43/43/85
f 43/43/86 42/42/86 70/70/86
f 68/68/87 71/71/87 64/64/87
f 71/71/88 68/68/88 69/69/88
f 64/64/89 71/71/89 66/66/89
f 69/69/90 72/72/90 71/71/90
f 72/72/91 69/69/91 70/70/91
f 70/70/92 73/73/92 72/72/92
f 73/73/93 70/70/93 42/42/93
f 42/42/94 74/74/94 73/73/94
f 39/39/95 74/74/95 42/42/95
f 5/5/96 75/75/96 9/9/96
f 34/34/97 9/9/97 75/75/97
f 75/75/98 76/76/98 34/34/98
f 11/11/99 34/34/99 76/76/99
f 76/76/100 12/12/100 11/11/100
f 13/13/101 77/77/101 14/14/101
f 14/14/102 77/77/102 78/78/102
f 78/78/103 16/16/103 14/14/103
f 16/16/104 78/78/104 17/17/104
f 20/20/105 79/79/105 21/21/105
f 23/23/106 21/21/106 79/79/106
f 79/79/107 80/80/107 23/23/107
f 23/23/108 80/80/108 24/24/108
f 25/25/109 24/24/109 81/81/109
f 81/81/110 28/28/110 25/25/110
f 28/28/111 81/81/111 82/82/111
f 82/82/112 29/29/112 28/28/112
f 29/29/113 82/82/113 31/31/113
f 39/39/114 83/83/114 84/84/114
f 41/41/115 43/43/115 85/85/115
f 85/85/116 43/43/116 45/45/116
f 45/45/117 44/44/117 85/85/117
f 48/48/118 86/86/118 47/47/118
f 86/86/119 48/48/119 54/54/119
f 54/54/120 87/87/120 86/86/120
f 87/87/121 54/54/121 51/51/121
f 51/51/122 50/50/122 87/87/122
f 88/88/123 49/49/123 52/52/123
f 58/58/124 57/57/124 89/89/124
f 89/89/125 59/59/125 58/58/125
f 65/65/126 89/89/126 57/57/126
f 61/61/127 60/60/127 90/90/127
f 90/90/128 62/62/128 61/61/128
f 62/62/129 90/90/129 88/88/129
f 88/88/130 63/63/130 62/62/130
f 52/52/131 63/63/131 88/88/131
f 91/91/132 66/66/132 71/71/132
f 71/71/133 72/72/133 91/91/133
f 92/92/134 91/91/134 72/72/134
f 72/72/135 73/73/135 92/92/135
f 84/84/136 92/92/136 73/73/136
f 84/84/137 74/74/137 39/39/137
f 73/73/138 74/74/138 84/84/138
